REM DIRINDEX 1\2,1\3
REM DIRNAME folder01,folder02,folder03
TITLE ""
FILE "Track51.mp3" MP3
  TRACK 01 AUDIO
    TITLE "0:"
    INDEX 01 00:00:00
  TRACK 02 AUDIO
    TITLE "3:cjc140_183"
    INDEX 01 00:00:05
  TRACK 03 AUDIO
    TITLE "2:cjc140_184"
    INDEX 01 00:01:62
  TRACK 04 AUDIO
    TITLE "2:cjc140_185"
    INDEX 01 00:07:37
  TRACK 05 AUDIO
    TITLE "2:cjc140_186"
    INDEX 01 00:14:19
  TRACK 06 AUDIO
    TITLE "0:"
    INDEX 01 00:24:55
